# xmcd
#
# Track frame offsets: 
#        150
#        19940
#        35590
#        61755
#        83095
#        98595
#        120895
#        140155
#        186120
#        208045
#        232030
#
# Disc length: 3392 seconds
#
# Revision: 5
# Processed by: cddbd v1.5.2PL0 Copyright (c) Steve Scherf et al.
# Submitted via: ExactAudioCopy v1.1
#
DISCID=8e0d3e0b
DTITLE=Dee Dee Bridgewater - J'ai Deux Amours
DYEAR=2005
DGENRE=Vocal
TTITLE0=J'ai Deux Amours
TTITLE1=La Mer (Beyond The Sea)
TTITLE2=Ne Me Quitte Pas
TTITLE3=Mon Homme (My Man)
TTITLE4=Et Maintenant
TTITLE5=Que Reste-t-il De Nos Amours
TTITLE6=Dansez Sur Moi (Girl Talk)
TTITLE7=La Belle Vie (The Good Life)
TTITLE8=Avec Le Temps
TTITLE9=La Vie En Rose
TTITLE10=Les Feuilles Mortes
EXTD=YEAR: 2005
EXTT0=
EXTT1=
EXTT2=
EXTT3=
EXTT4=
EXTT5=
EXTT6=
EXTT7=
EXTT8=
EXTT9=
EXTT10=
PLAYORDER=
